<svg width="17" height="11" viewBox="0 0 17 11" fill="none" xmlns="http://www.w3.org/2000/svg">
<rect width="17" height="11" rx="1" fill="#212121"/>
<path d="M1.864 10V1.432H8.5V3.184H4.336V4.672H7.72V6.424H4.312V10H1.864Z" fill="#EAAA00"/>
<path d="M8.49201 10V1.432H12.512C13.184 1.432 13.76 1.5 14.24 1.636C14.72 1.764 15.112 1.956 15.416 2.212C15.976 2.684 16.256 3.384 16.256 4.312C16.256 5.256 15.96 5.98 15.368 6.484C14.784 6.98 13.832 7.228 12.512 7.228H10.94V10H8.49201ZM10.94 3.184V5.476H12.404C13.292 5.476 13.736 5.088 13.736 4.312C13.736 3.952 13.624 3.676 13.4 3.484C13.176 3.284 12.844 3.184 12.404 3.184H10.94Z" fill="white"/>
</svg>
