<svg width="9" height="11" viewBox="0 0 9 11" fill="none" xmlns="http://www.w3.org/2000/svg">
<rect width="9" height="10.036" rx="0.133758" fill="black"/>
<path d="M0.668793 0.668793H4.28487V1.91143H2.0357V4.33458H3.80024V5.57722H2.0357V9.36726H0.668793V0.668793Z" fill="#EAAA00"/>
<path d="M4.28021 0.668793H6.29329C6.97259 0.668793 7.48208 0.851046 7.82173 1.21555C8.16139 1.58006 8.33121 2.1144 8.33121 2.81856V3.67598C8.33121 4.38014 8.16139 4.91447 7.82173 5.27898C7.48208 5.64349 6.97259 5.82574 6.29329 5.82574H5.64711V9.36726H4.28021V0.668793ZM6.29329 4.5831C6.51696 4.5831 6.68265 4.52097 6.79034 4.39671C6.90632 4.27244 6.96431 4.0612 6.96431 3.76296V2.73157C6.96431 2.43334 6.90632 2.22209 6.79034 2.09783C6.68265 1.97356 6.51696 1.91143 6.29329 1.91143H5.64711V4.5831H6.29329Z" fill="white"/>
</svg>
