<svg width="31" height="34" viewBox="0 0 31 34" fill="none" xmlns="http://www.w3.org/2000/svg">
<path d="M0.968 0.399998H14.936V5.2H6.248V14.56H13.064V19.36H6.248V34H0.968V0.399998Z" fill="#EAAA00"/>
<path d="M14.828 0.399998H22.604C25.228 0.399998 27.196 1.104 28.508 2.512C29.82 3.92 30.476 5.984 30.476 8.704V12.016C30.476 14.736 29.82 16.8 28.508 18.208C27.196 19.616 25.228 20.32 22.604 20.32H20.108V34H14.828V0.399998ZM22.604 15.52C23.468 15.52 24.108 15.28 24.524 14.8C24.972 14.32 25.196 13.504 25.196 12.352V8.368C25.196 7.216 24.972 6.4 24.524 5.92C24.108 5.44 23.468 5.2 22.604 5.2H20.108V15.52H22.604Z" fill="white"/>
</svg>
