<svg width="71" height="10" viewBox="0 0 71 10" fill="none" xmlns="http://www.w3.org/2000/svg">
<path d="M0.492001 0.600011H3.984V1.80001H1.812V4.14001H3.516V5.34001H1.812V9.00001H0.492001V0.600011Z" fill="#EAAA00"/>
<path d="M6.537 9.12001C5.897 9.12001 5.409 8.94001 5.073 8.58001C4.737 8.21201 4.569 7.68801 4.569 7.00801V0.600011H5.889V7.10401C5.889 7.39201 5.945 7.60001 6.057 7.72801C6.177 7.85601 6.345 7.92001 6.561 7.92001C6.777 7.92001 6.941 7.85601 7.053 7.72801C7.173 7.60001 7.233 7.39201 7.233 7.10401V0.600011H8.505V7.00801C8.505 7.68801 8.337 8.21201 8.001 8.58001C7.665 8.94001 7.177 9.12001 6.537 9.12001Z" fill="#EAAA00"/>
<path d="M9.44513 0.600011H11.1011L12.3851 5.62801H12.4091V0.600011H13.5851V9.00001H12.2291L10.6451 2.86801H10.6211V9.00001H9.44513V0.600011Z" fill="#EAAA00"/>
<path d="M16.4262 9.12001C15.7942 9.12001 15.3102 8.94001 14.9742 8.58001C14.6462 8.22001 14.4822 7.71201 14.4822 7.05601V2.54401C14.4822 1.88801 14.6462 1.38001 14.9742 1.02001C15.3102 0.660011 15.7942 0.480011 16.4262 0.480011C17.0582 0.480011 17.5382 0.660011 17.8662 1.02001C18.2022 1.38001 18.3702 1.88801 18.3702 2.54401V3.43201H17.1222V2.46001C17.1222 1.94001 16.9022 1.68001 16.4622 1.68001C16.0222 1.68001 15.8022 1.94001 15.8022 2.46001V7.15201C15.8022 7.66401 16.0222 7.92001 16.4622 7.92001C16.9022 7.92001 17.1222 7.66401 17.1222 7.15201V5.86801H18.3702V7.05601C18.3702 7.71201 18.2022 8.22001 17.8662 8.58001C17.5382 8.94001 17.0582 9.12001 16.4262 9.12001Z" fill="#EAAA00"/>
<path d="M20.192 1.80001H18.812V0.600011H22.892V1.80001H21.512V9.00001H20.192V1.80001Z" fill="#EAAA00"/>
<path d="M23.5311 0.600011H24.8511V9.00001H23.5311V0.600011Z" fill="#EAAA00"/>
<path d="M27.7477 9.12001C27.0997 9.12001 26.6037 8.93601 26.2597 8.56801C25.9157 8.20001 25.7437 7.68001 25.7437 7.00801V2.59201C25.7437 1.92001 25.9157 1.40001 26.2597 1.03201C26.6037 0.664011 27.0997 0.480011 27.7477 0.480011C28.3957 0.480011 28.8917 0.664011 29.2357 1.03201C29.5797 1.40001 29.7517 1.92001 29.7517 2.59201V7.00801C29.7517 7.68001 29.5797 8.20001 29.2357 8.56801C28.8917 8.93601 28.3957 9.12001 27.7477 9.12001ZM27.7477 7.92001C28.2037 7.92001 28.4317 7.64401 28.4317 7.09201V2.50801C28.4317 1.95601 28.2037 1.68001 27.7477 1.68001C27.2917 1.68001 27.0637 1.95601 27.0637 2.50801V7.09201C27.0637 7.64401 27.2917 7.92001 27.7477 7.92001Z" fill="#EAAA00"/>
<path d="M30.6443 0.600011H32.3003L33.5843 5.62801H33.6083V0.600011H34.7843V9.00001H33.4283L31.8443 2.86801H31.8203V9.00001H30.6443V0.600011Z" fill="#EAAA00"/>
<path d="M36.7854 0.600011H38.5734L39.9414 9.00001H38.6214L38.3814 7.33201V7.35601H36.8814L36.6414 9.00001H35.4174L36.7854 0.600011ZM38.2254 6.21601L37.6374 2.06401H37.6134L37.0374 6.21601H38.2254Z" fill="#EAAA00"/>
<path d="M40.5818 0.600011H41.9018V7.80001H44.0738V9.00001H40.5818V0.600011Z" fill="#EAAA00"/>
<path d="M44.042 0.600011H45.986C46.642 0.600011 47.134 0.776011 47.462 1.12801C47.79 1.48001 47.954 1.99601 47.954 2.67601V3.50401C47.954 4.18401 47.79 4.70001 47.462 5.05201C47.134 5.40401 46.642 5.58001 45.986 5.58001H45.362V9.00001H44.042V0.600011ZM45.986 4.38001C46.202 4.38001 46.362 4.32001 46.466 4.20001C46.578 4.08001 46.634 3.87601 46.634 3.58801V2.59201C46.634 2.30401 46.578 2.10001 46.466 1.98001C46.362 1.86001 46.202 1.80001 45.986 1.80001H45.362V4.38001H45.986Z" fill="white"/>
<path d="M48.6709 0.600011H49.9909V7.80001H52.1629V9.00001H48.6709V0.600011Z" fill="white"/>
<path d="M53.8628 0.600011H55.6508L57.0188 9.00001H55.6988L55.4588 7.33201V7.35601H53.9588L53.7188 9.00001H52.4948L53.8628 0.600011ZM55.3028 6.21601L54.7148 2.06401H54.6908L54.1148 6.21601H55.3028Z" fill="white"/>
<path d="M58.3204 5.42401L56.7244 0.600011H58.1284L59.0284 3.68401H59.0524L59.9524 0.600011H61.2364L59.6404 5.42401V9.00001H58.3204V5.42401Z" fill="white"/>
<path d="M61.8311 0.600011H65.4311V1.80001H63.1511V4.02001H64.9631V5.22001H63.1511V7.80001H65.4311V9.00001H61.8311V0.600011Z" fill="white"/>
<path d="M66.1904 0.600011H68.1464C68.8264 0.600011 69.3224 0.760011 69.6344 1.08001C69.9464 1.39201 70.1024 1.87601 70.1024 2.53201V3.04801C70.1024 3.92001 69.8144 4.47201 69.2384 4.70401V4.72801C69.5584 4.82401 69.7824 5.02001 69.9104 5.31601C70.0464 5.61201 70.1144 6.00801 70.1144 6.50401V7.98001C70.1144 8.22001 70.1224 8.41601 70.1384 8.56801C70.1544 8.71201 70.1944 8.85601 70.2584 9.00001H68.9144C68.8664 8.86401 68.8344 8.73601 68.8184 8.61601C68.8024 8.49601 68.7944 8.28001 68.7944 7.96801V6.43201C68.7944 6.04801 68.7304 5.78001 68.6024 5.62801C68.4824 5.47601 68.2704 5.40001 67.9664 5.40001H67.5104V9.00001H66.1904V0.600011ZM67.9904 4.20001C68.2544 4.20001 68.4504 4.13201 68.5784 3.99601C68.7144 3.86001 68.7824 3.63201 68.7824 3.31201V2.66401C68.7824 2.36001 68.7264 2.14001 68.6144 2.00401C68.5104 1.86801 68.3424 1.80001 68.1104 1.80001H67.5104V4.20001H67.9904Z" fill="white"/>
</svg>
