<svg width="215" height="12" viewBox="0 0 215 12" fill="none" xmlns="http://www.w3.org/2000/svg">
<path d="M0.00800006 11V1.004H7.75V3.048H2.892V4.784H6.84V6.828H2.864V11H0.00800006ZM12.5021 1.004H15.3581V6.954C15.3581 7.85933 15.4935 8.48933 15.7641 8.844C16.0441 9.18933 16.5481 9.36667 17.2761 9.376C18.0041 9.36667 18.5035 9.18933 18.7741 8.844C19.0541 8.48933 19.1941 7.85933 19.1941 6.954L19.2081 1.004H22.0641V7.752C22.0641 8.312 21.9801 8.80667 21.8121 9.236C21.6535 9.656 21.3875 10.02 21.0141 10.328C20.6501 10.636 20.1601 10.874 19.5441 11.042C18.9281 11.21 18.1721 11.2987 17.2761 11.308C16.3801 11.2987 15.6241 11.21 15.0081 11.042C14.3921 10.874 13.9021 10.636 13.5381 10.328C13.1741 10.02 12.9081 9.65133 12.7401 9.222C12.5815 8.79267 12.5021 8.30267 12.5021 7.752V1.004ZM37.4841 11H33.5081L30.2321 4.63H30.2041V11H27.4321V1.004H31.4221L34.6701 7.696H34.7121V1.004H37.4841V11ZM52.906 4.28H49.98C49.9147 3.776 49.7047 3.37467 49.35 3.076C48.9953 2.77733 48.524 2.628 47.936 2.628C47.236 2.628 46.6667 2.922 46.228 3.51C45.7987 4.098 45.584 4.92867 45.584 6.002C45.584 7.07533 45.7987 7.906 46.228 8.494C46.6667 9.082 47.236 9.376 47.936 9.376C48.5613 9.376 49.0467 9.20333 49.392 8.858C49.7373 8.51267 49.9427 8.03667 50.008 7.43H52.976C52.8733 8.12067 52.6727 8.718 52.374 9.222C52.0847 9.71667 51.7207 10.118 51.282 10.426C50.8527 10.734 50.372 10.958 49.84 11.098C49.3173 11.238 48.7527 11.308 48.146 11.308C47.3247 11.308 46.564 11.196 45.864 10.972C45.1733 10.748 44.5713 10.412 44.058 9.964C43.5447 9.516 43.148 8.96067 42.868 8.298C42.588 7.626 42.448 6.86067 42.448 6.002C42.448 5.14333 42.588 4.38267 42.868 3.72C43.148 3.048 43.5447 2.488 44.058 2.04C44.5713 1.592 45.1733 1.256 45.864 1.032C46.564 0.807999 47.3247 0.695999 48.146 0.695999C48.762 0.695999 49.3453 0.775333 49.896 0.933999C50.4467 1.08333 50.9367 1.312 51.366 1.62C51.7953 1.91867 52.1407 2.292 52.402 2.74C52.6727 3.188 52.8407 3.70133 52.906 4.28ZM62.922 11H60.066V3.16H57.028V1.004H65.96V3.16H62.922V11ZM70.7059 11V1.004H73.5619V11H70.7059ZM90.0058 6.002C90.0058 6.86067 89.8658 7.626 89.5858 8.298C89.3058 8.96067 88.9091 9.516 88.3958 9.964C87.8825 10.412 87.2805 10.748 86.5898 10.972C85.8991 11.196 85.1431 11.308 84.3218 11.308C83.5005 11.308 82.7398 11.196 82.0398 10.972C81.3491 10.748 80.7471 10.412 80.2338 9.964C79.7205 9.516 79.3238 8.96067 79.0438 8.298C78.7638 7.626 78.6238 6.86067 78.6238 6.002C78.6238 5.14333 78.7638 4.38267 79.0438 3.72C79.3238 3.048 79.7205 2.488 80.2338 2.04C80.7471 1.592 81.3491 1.256 82.0398 1.032C82.7398 0.807999 83.5005 0.695999 84.3218 0.695999C85.1431 0.695999 85.8991 0.807999 86.5898 1.032C87.2805 1.256 87.8825 1.592 88.3958 2.04C88.9091 2.488 89.3058 3.048 89.5858 3.72C89.8658 4.38267 90.0058 5.14333 90.0058 6.002ZM81.7598 6.002C81.7598 7.094 81.9838 7.92933 82.4318 8.508C82.8891 9.08667 83.5191 9.376 84.3218 9.376C85.1151 9.376 85.7358 9.08667 86.1838 8.508C86.6411 7.92 86.8698 7.08467 86.8698 6.002C86.8698 4.91 86.6411 4.07467 86.1838 3.496C85.7358 2.91733 85.1151 2.628 84.3218 2.628C83.5191 2.628 82.8891 2.91733 82.4318 3.496C81.9838 4.07467 81.7598 4.91 81.7598 6.002ZM105.023 11H101.047L97.7712 4.63H97.7432V11H94.9712V1.004H98.9612L102.209 7.696H102.251V1.004H105.023V11ZM115.321 3.496L114.089 7.094H116.525L115.349 3.496H115.321ZM112.717 11H109.623L113.571 1.004H117.099L120.949 11H117.883L117.211 9.026H113.403L112.717 11ZM133.213 11H125.625V1.004H128.481V8.956H133.213V11Z" fill="#EAAA00"/>
<path d="M138.119 11V1.004H142.809C143.593 1.004 144.265 1.08333 144.825 1.242C145.385 1.39133 145.843 1.61533 146.197 1.914C146.851 2.46467 147.177 3.28133 147.177 4.364C147.177 5.46533 146.832 6.31 146.141 6.898C145.46 7.47667 144.349 7.766 142.809 7.766H140.975V11H138.119ZM140.975 3.048V5.722H142.683C143.719 5.722 144.237 5.26933 144.237 4.364C144.237 3.944 144.107 3.622 143.845 3.398C143.584 3.16467 143.197 3.048 142.683 3.048H140.975ZM159.668 11H152.08V1.004H154.936V8.956H159.668V11ZM169.516 3.496L168.284 7.094H170.72L169.544 3.496H169.516ZM166.912 11H163.818L167.766 1.004H171.294L175.144 11H172.078L171.406 9.026H167.598L166.912 11ZM181.503 11V7.388L177.611 1.004H180.789L183.029 4.938L185.227 1.004H188.321L184.359 7.388V11H181.503ZM200.408 11H192.848V1.004H200.408V3.048H195.704V4.784H199.568V6.828H195.704V8.956H200.408V11ZM205.426 11V1.004H210.214C211.082 1.004 211.801 1.074 212.37 1.214C212.939 1.354 213.378 1.54533 213.686 1.788C213.994 2.02133 214.204 2.292 214.316 2.6C214.437 2.908 214.498 3.24867 214.498 3.622C214.498 3.99533 214.447 4.322 214.344 4.602C214.241 4.882 214.101 5.12 213.924 5.316C213.747 5.50267 213.555 5.652 213.35 5.764C213.145 5.86667 212.93 5.93667 212.706 5.974V6.002C213.191 6.142 213.569 6.34733 213.84 6.618C214.12 6.87933 214.26 7.262 214.26 7.766V8.942C214.26 9.59533 214.288 10.062 214.344 10.342C214.4 10.622 214.535 10.8413 214.75 11H211.684C211.572 10.8133 211.497 10.6127 211.46 10.398C211.423 10.174 211.404 9.96867 211.404 9.782V8.34C211.404 7.864 211.306 7.53733 211.11 7.36C210.923 7.18267 210.531 7.094 209.934 7.094H208.282V11H205.426ZM210.676 3.048H208.282V5.05H210.676C210.919 5.05 211.138 4.95667 211.334 4.77C211.539 4.58333 211.642 4.34533 211.642 4.056C211.633 3.748 211.539 3.50533 211.362 3.328C211.194 3.14133 210.965 3.048 210.676 3.048Z" fill="white"/>
</svg>
