<svg width="71" height="14" viewBox="0 0 71 14" fill="none" xmlns="http://www.w3.org/2000/svg">
<path d="M0.492 2.6H3.984V3.8H1.812V6.14H3.516V7.34H1.812V11H0.492V2.6ZM6.537 11.12C5.897 11.12 5.409 10.94 5.073 10.58C4.737 10.212 4.569 9.688 4.569 9.008V2.6H5.889V9.104C5.889 9.392 5.945 9.6 6.057 9.728C6.177 9.856 6.345 9.92 6.561 9.92C6.777 9.92 6.941 9.856 7.053 9.728C7.173 9.6 7.233 9.392 7.233 9.104V2.6H8.505V9.008C8.505 9.688 8.337 10.212 8.001 10.58C7.665 10.94 7.177 11.12 6.537 11.12ZM9.44513 2.6H11.1011L12.3851 7.628H12.4091V2.6H13.5851V11H12.2291L10.6451 4.868H10.6211V11H9.44513V2.6ZM16.4262 11.12C15.7942 11.12 15.3102 10.94 14.9742 10.58C14.6462 10.22 14.4822 9.712 14.4822 9.056V4.544C14.4822 3.888 14.6462 3.38 14.9742 3.02C15.3102 2.66 15.7942 2.48 16.4262 2.48C17.0582 2.48 17.5382 2.66 17.8662 3.02C18.2022 3.38 18.3702 3.888 18.3702 4.544V5.432H17.1222V4.46C17.1222 3.94 16.9022 3.68 16.4622 3.68C16.0222 3.68 15.8022 3.94 15.8022 4.46V9.152C15.8022 9.664 16.0222 9.92 16.4622 9.92C16.9022 9.92 17.1222 9.664 17.1222 9.152V7.868H18.3702V9.056C18.3702 9.712 18.2022 10.22 17.8662 10.58C17.5382 10.94 17.0582 11.12 16.4262 11.12ZM20.192 3.8H18.812V2.6H22.892V3.8H21.512V11H20.192V3.8ZM23.5311 2.6H24.8511V11H23.5311V2.6ZM27.7477 11.12C27.0997 11.12 26.6037 10.936 26.2597 10.568C25.9157 10.2 25.7437 9.68 25.7437 9.008V4.592C25.7437 3.92 25.9157 3.4 26.2597 3.032C26.6037 2.664 27.0997 2.48 27.7477 2.48C28.3957 2.48 28.8917 2.664 29.2357 3.032C29.5797 3.4 29.7517 3.92 29.7517 4.592V9.008C29.7517 9.68 29.5797 10.2 29.2357 10.568C28.8917 10.936 28.3957 11.12 27.7477 11.12ZM27.7477 9.92C28.2037 9.92 28.4317 9.644 28.4317 9.092V4.508C28.4317 3.956 28.2037 3.68 27.7477 3.68C27.2917 3.68 27.0637 3.956 27.0637 4.508V9.092C27.0637 9.644 27.2917 9.92 27.7477 9.92ZM30.6443 2.6H32.3003L33.5843 7.628H33.6083V2.6H34.7843V11H33.4283L31.8443 4.868H31.8203V11H30.6443V2.6ZM36.7854 2.6H38.5734L39.9414 11H38.6214L38.3814 9.332V9.356H36.8814L36.6414 11H35.4174L36.7854 2.6ZM38.2254 8.216L37.6374 4.064H37.6134L37.0374 8.216H38.2254Z" fill="#EAAA00"/>
<path d="M40.5818 2.6H41.9018V9.8H44.0738V11H40.5818V2.6Z" fill="white"/>
<path d="M43.992 2.6H45.936C46.592 2.6 47.084 2.776 47.412 3.128C47.74 3.48 47.904 3.996 47.904 4.676V5.504C47.904 6.184 47.74 6.7 47.412 7.052C47.084 7.404 46.592 7.58 45.936 7.58H45.312V11H43.992V2.6ZM45.936 6.38C46.152 6.38 46.312 6.32 46.416 6.2C46.528 6.08 46.584 5.876 46.584 5.588V4.592C46.584 4.304 46.528 4.1 46.416 3.98C46.312 3.86 46.152 3.8 45.936 3.8H45.312V6.38H45.936Z" fill="#EAAA00"/>
<path d="M48.6209 2.6H49.9409V9.8H52.1129V11H48.6209V2.6ZM53.8128 2.6H55.6008L56.9688 11H55.6488L55.4088 9.332V9.356H53.9088L53.6688 11H52.4448L53.8128 2.6ZM55.2528 8.216L54.6648 4.064H54.6408L54.0648 8.216H55.2528ZM58.2704 7.424L56.6744 2.6H58.0784L58.9784 5.684H59.0024L59.9024 2.6H61.1864L59.5904 7.424V11H58.2704V7.424ZM61.7811 2.6H65.3811V3.8H63.1011V6.02H64.9131V7.22H63.1011V9.8H65.3811V11H61.7811V2.6ZM66.1404 2.6H68.0964C68.7764 2.6 69.2724 2.76 69.5844 3.08C69.8964 3.392 70.0524 3.876 70.0524 4.532V5.048C70.0524 5.92 69.7644 6.472 69.1884 6.704V6.728C69.5084 6.824 69.7324 7.02 69.8604 7.316C69.9964 7.612 70.0644 8.008 70.0644 8.504V9.98C70.0644 10.22 70.0724 10.416 70.0884 10.568C70.1044 10.712 70.1444 10.856 70.2084 11H68.8644C68.8164 10.864 68.7844 10.736 68.7684 10.616C68.7524 10.496 68.7444 10.28 68.7444 9.968V8.432C68.7444 8.048 68.6804 7.78 68.5524 7.628C68.4324 7.476 68.2204 7.4 67.9164 7.4H67.4604V11H66.1404V2.6ZM67.9404 6.2C68.2044 6.2 68.4004 6.132 68.5284 5.996C68.6644 5.86 68.7324 5.632 68.7324 5.312V4.664C68.7324 4.36 68.6764 4.14 68.5644 4.004C68.4604 3.868 68.2924 3.8 68.0604 3.8H67.4604V6.2H67.9404Z" fill="white"/>
</svg>
