<svg width="236" height="30" viewBox="0 0 236 30" fill="none" xmlns="http://www.w3.org/2000/svg">
<path d="M0.64 0.999998H12.28V5H5.04V12.8H10.72V16.8H5.04V29H0.64V0.999998ZM20.79 29.4C18.6567 29.4 17.03 28.8 15.91 27.6C14.79 26.3733 14.23 24.6267 14.23 22.36V0.999998H18.63V22.68C18.63 23.64 18.8167 24.3333 19.19 24.76C19.59 25.1867 20.15 25.4 20.87 25.4C21.59 25.4 22.1367 25.1867 22.51 24.76C22.91 24.3333 23.11 23.64 23.11 22.68V0.999998H27.35V22.36C27.35 24.6267 26.79 26.3733 25.67 27.6C24.55 28.8 22.9233 29.4 20.79 29.4ZM30.4838 0.999998H36.0038L40.2838 17.76H40.3638V0.999998H44.2838V29H39.7638L34.4838 8.56H34.4038V29H30.4838V0.999998ZM53.7541 29.4C51.6474 29.4 50.0341 28.8 48.9141 27.6C47.8207 26.4 47.2741 24.7067 47.2741 22.52V7.48C47.2741 5.29333 47.8207 3.6 48.9141 2.4C50.0341 1.2 51.6474 0.599998 53.7541 0.599998C55.8607 0.599998 57.4607 1.2 58.5541 2.4C59.6741 3.6 60.2341 5.29333 60.2341 7.48V10.44H56.0741V7.2C56.0741 5.46667 55.3407 4.6 53.8741 4.6C52.4074 4.6 51.6741 5.46667 51.6741 7.2V22.84C51.6741 24.5467 52.4074 25.4 53.8741 25.4C55.3407 25.4 56.0741 24.5467 56.0741 22.84V18.56H60.2341V22.52C60.2341 24.7067 59.6741 26.4 58.5541 27.6C57.4607 28.8 55.8607 29.4 53.7541 29.4ZM66.3066 5H61.7066V0.999998H75.3066V5H70.7066V29H66.3066V5ZM77.4369 0.999998H81.8369V29H77.4369V0.999998ZM91.4922 29.4C89.3322 29.4 87.6789 28.7867 86.5322 27.56C85.3855 26.3333 84.8122 24.6 84.8122 22.36V7.64C84.8122 5.4 85.3855 3.66667 86.5322 2.44C87.6789 1.21333 89.3322 0.599998 91.4922 0.599998C93.6522 0.599998 95.3055 1.21333 96.4522 2.44C97.5989 3.66667 98.1722 5.4 98.1722 7.64V22.36C98.1722 24.6 97.5989 26.3333 96.4522 27.56C95.3055 28.7867 93.6522 29.4 91.4922 29.4ZM91.4922 25.4C93.0122 25.4 93.7722 24.48 93.7722 22.64V7.36C93.7722 5.52 93.0122 4.6 91.4922 4.6C89.9722 4.6 89.2122 5.52 89.2122 7.36V22.64C89.2122 24.48 89.9722 25.4 91.4922 25.4ZM101.148 0.999998H106.668L110.948 17.76H111.028V0.999998H114.948V29H110.428L105.148 8.56H105.068V29H101.148V0.999998ZM121.618 0.999998H127.578L132.138 29H127.738L126.938 23.44V23.52H121.938L121.138 29H117.058L121.618 0.999998ZM126.418 19.72L124.458 5.88H124.378L122.458 19.72H126.418ZM134.273 0.999998H138.673V25H145.913V29H134.273V0.999998Z" fill="#EAAA00"/>
<path d="M148.023 0.999998H154.503C156.689 0.999998 158.329 1.58667 159.423 2.76C160.516 3.93333 161.063 5.65333 161.063 7.92V10.68C161.063 12.9467 160.516 14.6667 159.423 15.84C158.329 17.0133 156.689 17.6 154.503 17.6H152.423V29H148.023V0.999998ZM154.503 13.6C155.223 13.6 155.756 13.4 156.103 13C156.476 12.6 156.663 11.92 156.663 10.96V7.64C156.663 6.68 156.476 6 156.103 5.6C155.756 5.2 155.223 5 154.503 5H152.423V13.6H154.503ZM163.453 0.999998H167.853V25H175.093V29H163.453V0.999998ZM180.759 0.999998H186.719L191.279 29H186.879L186.079 23.44V23.52H181.079L180.279 29H176.199L180.759 0.999998ZM185.559 19.72L183.599 5.88H183.519L181.599 19.72H185.559ZM195.618 17.08L190.298 0.999998H194.978L197.978 11.28H198.058L201.058 0.999998H205.338L200.018 17.08V29H195.618V17.08ZM207.32 0.999998H219.32V5H211.72V12.4H217.76V16.4H211.72V25H219.32V29H207.32V0.999998ZM221.851 0.999998H228.371C230.638 0.999998 232.291 1.53333 233.331 2.6C234.371 3.64 234.891 5.25333 234.891 7.44V9.16C234.891 12.0667 233.931 13.9067 232.011 14.68V14.76C233.078 15.08 233.824 15.7333 234.251 16.72C234.704 17.7067 234.931 19.0267 234.931 20.68V25.6C234.931 26.4 234.958 27.0533 235.011 27.56C235.064 28.04 235.198 28.52 235.411 29H230.931C230.771 28.5467 230.664 28.12 230.611 27.72C230.558 27.32 230.531 26.6 230.531 25.56V20.44C230.531 19.16 230.318 18.2667 229.891 17.76C229.491 17.2533 228.784 17 227.771 17H226.251V29H221.851V0.999998ZM227.851 13C228.731 13 229.384 12.7733 229.811 12.32C230.264 11.8667 230.491 11.1067 230.491 10.04V7.88C230.491 6.86667 230.304 6.13333 229.931 5.68C229.584 5.22667 229.024 5 228.251 5H226.251V13H227.851Z" fill="white"/>
</svg>
